<svg width="756" height="417" viewBox="0 0 756 417" fill="none" xmlns="http://www.w3.org/2000/svg">
<path d="M180 84.5L171.14 77.5L162.28 70.5H0" stroke="white" stroke-width="1.25" stroke-miterlimit="10"/>
<circle cx="341" cy="208.5" r="208" fill="#F63A01"/>
<path d="M331 208.404L526.062 102.5C526.062 102.5 561 164.146 561 208.404C561 229.055 552.499 254.623 543.431 276.022C539.441 285.436 535.75 294.303 532.217 301.33C526.568 312.563 521.956 319.5 521.956 319.5L331 208.404Z" fill="#1C1C1C"/>
<path d="M561 273.5L577.637 284.5H756" stroke="white" stroke-width="1.25" stroke-miterlimit="10"/>
<path d="M365 208L552.429 99.5C552.429 99.5 586 163.636 586 208C586 252.364 552.429 316.5 552.429 316.5L365 208Z" fill="#F9D8CE"/>
</svg>

