<svg width="42" height="56" viewBox="0 0 42 56" fill="none" xmlns="http://www.w3.org/2000/svg">
<path d="M41.5631 21.4212C41.5631 32.7777 20.9627 55.7971 20.9627 55.7971C20.9627 55.7971 0.362305 32.816 0.362305 21.4212C0.362305 15.9687 2.5327 10.7396 6.39603 6.88412C10.2594 3.02865 15.4991 0.862671 20.9627 0.862671C26.4263 0.862671 31.6661 3.02865 35.5294 6.88412C39.3927 10.7396 41.5631 15.9687 41.5631 21.4212Z" fill="#F63A01"/>
<path d="M20.9622 36.2371C29.3515 36.2371 36.1524 29.4362 36.1524 21.0469C36.1524 12.6575 29.3515 5.85666 20.9622 5.85666C12.5729 5.85666 5.77197 12.6575 5.77197 21.0469C5.77197 29.4362 12.5729 36.2371 20.9622 36.2371Z" fill="#D93200"/>
</svg>
