<svg width="1120" height="1082" viewBox="0 0 1120 1082" fill="none" xmlns="http://www.w3.org/2000/svg">
<path d="M813.628 0H1120.13V1081.5L894.628 1066.5L720.128 1041L512.628 1003C439.128 990.333 289.628 964 279.628 960C269.628 956 165.461 904.333 114.628 879C114.628 879 19.498 832.25 3.1276 775C-11.254 724.705 28.6276 643.5 28.6276 643.5L127.628 484C127.628 484 171.303 406.834 211.128 367.5C267.57 311.753 325.376 315.107 385.628 263.5C444.376 213.181 452.368 159.999 512.628 111.5C610.282 32.9054 813.628 0 813.628 0Z" fill="#F63A01"/>
</svg>
